<svg version="1.1" id="Layer_1" xmlns="http://www.w3.org/2000/svg" xmlns:xlink="http://www.w3.org/1999/xlink" x="0px" y="0px"
	 width="100%" viewBox="0 0 130 130" enable-background="new 0 0 130 130" xml:space="preserve">
<path fill="#EC5C31" opacity="1.000000" stroke="none" 
	d="
M117.000000,1.000000 
	C121.653389,1.000000 126.306770,1.000000 130.957886,1.000007 
	C130.955627,44.333355 130.955627,87.666695 130.955627,131.000000 
	C126.590256,131.000000 122.269257,131.000000 117.474129,130.531342 
	C117.000000,87.041786 117.000000,44.020893 117.000000,1.000000 
z"/>
<path fill="#EE5333" opacity="1.000000" stroke="none" 
	d="
M108.000000,131.000000 
	C104.637901,131.000000 101.275795,131.000000 97.456741,130.531342 
	C96.999924,120.374718 97.000053,110.686745 96.933655,100.661316 
	C96.576668,99.215378 96.286201,98.106895 95.766357,96.793381 
	C95.193794,96.363663 94.850624,96.138985 94.440887,95.544952 
	C94.555626,94.455513 94.736923,93.735435 95.125076,92.728416 
	C95.550003,91.287743 95.768082,90.134003 95.986504,88.605576 
	C95.663757,86.826035 95.340660,85.421173 94.907883,83.784225 
	C94.751877,83.387398 94.705559,83.222649 94.790855,82.793625 
	C94.991676,82.345085 95.060883,82.160835 95.190239,81.857056 
	C95.316978,81.464066 95.251732,81.220451 94.881210,80.885910 
	C94.707779,80.765160 94.309792,80.622841 94.332886,80.260010 
	C94.376793,78.933266 94.397598,77.969353 94.656052,77.032166 
	C94.888702,75.700073 94.883690,74.341255 94.914818,72.564697 
	C94.687637,69.776237 94.424316,67.405518 94.091537,64.609116 
	C93.713959,61.777256 93.405830,59.371071 93.053940,56.539864 
	C93.064743,54.409252 93.119308,52.703663 93.531723,50.929817 
	C94.592949,47.573128 95.296326,44.284695 95.921692,40.625031 
	C95.561760,38.504265 95.279831,36.754734 95.249466,34.712677 
	C96.000099,32.394241 96.895081,30.375151 96.930138,28.341238 
	C97.087204,19.229797 96.999413,10.114137 97.000000,1.000000 
	C100.362099,1.000000 103.724205,1.000000 107.543213,1.466868 
	C107.333664,15.325849 106.624603,28.716127 106.047897,42.112103 
	C105.963974,44.061329 106.705391,46.035118 106.732674,48.002151 
	C106.816185,54.021782 106.763039,60.043903 106.705704,66.064507 
	C106.690216,67.691887 105.944847,69.500198 106.435440,70.912506 
	C108.763168,77.613533 108.768196,84.178581 106.487358,90.888031 
	C105.999084,92.324379 106.446510,94.133804 106.666672,95.743477 
	C107.022171,98.342606 107.892288,100.912567 107.937607,103.505470 
	C108.097748,112.667877 107.999985,121.834793 108.000000,131.000000 
z"/>
<path fill="#EE5731" opacity="1.000000" stroke="none" 
	d="
M108.449982,131.000000 
	C107.999985,121.834793 108.097748,112.667877 107.937607,103.505470 
	C107.892288,100.912567 107.022171,98.342606 106.666672,95.743477 
	C106.446510,94.133804 105.999084,92.324379 106.487358,90.888031 
	C108.768196,84.178581 108.763168,77.613533 106.435440,70.912506 
	C105.944847,69.500198 106.690216,67.691887 106.705704,66.064507 
	C106.763039,60.043903 106.816185,54.021782 106.732674,48.002151 
	C106.705391,46.035118 105.963974,44.061329 106.047897,42.112103 
	C106.624603,28.716127 107.333664,15.325849 108.000061,1.466868 
	C110.700012,1.000000 113.400032,1.000000 116.550018,1.000000 
	C117.000000,44.020893 117.000000,87.041786 117.000000,130.531342 
	C114.299988,131.000000 111.599968,131.000000 108.449982,131.000000 
z"/>
<path fill="#F58A1D" opacity="1.000000" stroke="none" 
	d="
M8.000000,131.000000 
	C5.674728,131.000000 3.349457,131.000000 1.018327,131.000000 
	C1.012470,87.666664 1.012470,44.333332 1.018705,1.000000 
	C3.018023,1.000000 5.011107,1.000000 7.502091,1.447732 
	C7.666716,14.639412 7.171759,27.381699 7.040718,40.127724 
	C6.873479,56.394611 6.946095,72.664810 7.034460,88.932938 
	C7.059631,93.567001 7.632137,98.196289 7.719990,102.832199 
	C7.897890,112.219856 7.916005,121.610558 8.000000,131.000000 
z"/>
<path fill="#F0672C" opacity="1.000000" stroke="none" 
	d="
M42.000000,1.000000 
	C46.689255,1.000000 51.378513,1.000000 56.533939,1.468656 
	C57.910984,14.617125 54.705666,27.516766 58.954384,40.243614 
	C58.875130,40.473145 58.869606,40.958817 58.666744,41.076210 
	C58.251465,41.454258 58.178120,41.749466 57.991718,42.252174 
	C57.446609,43.172157 57.153629,43.919189 56.672264,44.738136 
	C56.298965,45.021420 56.068172,45.151150 55.435608,45.264709 
	C54.394836,45.556602 53.709934,45.783024 52.769165,46.006409 
	C52.342701,46.001740 52.172115,46.000107 51.940300,45.794949 
	C51.575630,45.378826 51.272186,45.166229 50.968739,44.953632 
	C50.944820,45.082275 50.862007,45.295258 50.906311,45.326199 
	C51.256699,45.570877 51.631310,45.780869 52.000629,46.346947 
	C52.011826,47.153854 52.020870,47.615337 52.109833,48.344894 
	C52.479370,49.086281 52.768986,49.559601 53.026546,50.369793 
	C52.337929,51.826908 51.681366,52.947144 51.002190,53.833618 
	C50.663307,53.426678 50.347042,53.253506 50.030773,53.080334 
	C49.708580,54.435589 49.386391,55.790840 49.047867,57.519730 
	C48.374958,59.636955 47.718380,61.380547 47.018379,62.938286 
	C46.638119,62.496418 46.301273,62.240395 45.784233,62.208374 
	C45.397259,62.965412 45.190483,63.498444 44.752617,64.034729 
	C44.521523,64.037971 44.059334,64.044586 43.745811,63.892914 
	C43.123131,63.365425 42.555134,62.997646 42.543179,62.612598 
	C42.322544,55.506573 42.063778,48.399097 42.022568,41.290710 
	C41.944714,27.860880 42.000027,14.430280 42.000000,1.000000 
z"/>
<path fill="#EE612D" opacity="1.000000" stroke="none" 
	d="
M59.033638,40.014084 
	C54.705666,27.516766 57.910984,14.617125 57.000053,1.468656 
	C63.687645,1.000000 70.375290,1.000000 77.530518,1.437470 
	C76.570946,10.331303 76.759689,18.724735 78.628983,27.034201 
	C77.198418,27.344732 76.116966,27.660191 74.754883,28.045450 
	C73.984322,28.409590 73.494385,28.703926 72.659019,29.001740 
	C71.269928,29.357239 70.226280,29.709259 68.899681,30.275257 
	C63.455559,31.535681 61.685108,35.700439 59.728992,39.951744 
	C59.500309,39.998722 59.033638,40.014084 59.033638,40.014084 
z"/>
<path fill="#F07227" opacity="1.000000" stroke="none" 
	d="
M34.000000,131.000000 
	C32.933483,131.000000 31.866964,131.000000 30.400204,130.531342 
	C29.999973,87.041786 29.999987,44.020893 30.000000,1.000000 
	C31.388889,1.000000 32.777779,1.000000 34.583275,1.468657 
	C34.999660,23.554098 34.998394,45.170883 35.000286,66.787666 
	C35.000587,70.196808 35.015202,73.605942 35.018913,77.394089 
	C35.353958,79.202797 35.693283,80.632507 36.026367,82.429550 
	C36.009342,83.531578 35.998566,84.266289 35.742851,84.999832 
	C35.497910,84.998672 35.006954,84.996620 34.806747,85.015907 
	C34.404629,85.684433 34.202713,86.333679 34.090889,87.254189 
	C34.758820,87.916061 35.336655,88.306664 36.017166,88.810425 
	C36.119846,88.923584 36.294861,89.174103 36.361565,89.441132 
	C36.489632,89.881081 36.550995,90.054008 36.425674,90.573654 
	C35.937466,92.201004 35.635941,93.481628 35.205532,95.023331 
	C34.993221,95.858994 34.909790,96.433594 34.659306,97.288177 
	C34.333420,99.365105 34.174583,101.162056 34.012688,103.430214 
	C34.006420,112.934288 34.003208,121.967140 34.000000,131.000000 
z"/>
<path fill="#EF6D29" opacity="1.000000" stroke="none" 
	d="
M35.023201,77.015083 
	C35.015202,73.605942 35.000587,70.196808 35.000286,66.787666 
	C34.998394,45.170883 34.999660,23.554098 34.999943,1.468657 
	C37.041668,1.000000 39.083332,1.000000 41.562500,1.000000 
	C42.000027,14.430280 41.944714,27.860880 42.022568,41.290710 
	C42.063778,48.399097 42.322544,55.506573 42.543179,62.612598 
	C42.555134,62.997646 43.123131,63.365425 43.711441,64.241737 
	C43.947998,66.483200 43.905403,68.224167 43.850170,70.290276 
	C43.276989,71.746582 42.716454,72.877747 42.088768,74.347794 
	C41.718987,75.472511 41.416344,76.258339 40.824951,77.100952 
	C40.024498,77.435440 39.512794,77.713150 38.754974,77.995018 
	C38.508858,77.999184 38.016594,78.005562 37.764927,78.004440 
	C37.345482,78.003891 37.177704,78.004463 36.793877,77.823456 
	C36.059616,77.432953 35.541409,77.224022 35.023201,77.015083 
z"/>
<path fill="#F5851F" opacity="1.000000" stroke="none" 
	d="
M8.399996,131.000000 
	C7.916005,121.610558 7.897890,112.219856 7.719990,102.832199 
	C7.632137,98.196289 7.059631,93.567001 7.034460,88.932938 
	C6.946095,72.664810 6.873479,56.394611 7.040718,40.127724 
	C7.171759,27.381699 7.666716,14.639412 7.999996,1.447732 
	C9.066669,1.000000 10.133339,1.000000 11.598993,1.437473 
	C11.665354,15.958929 11.320076,30.042641 11.015603,44.127232 
	C10.976111,45.954063 11.179663,47.784813 11.215534,49.614830 
	C11.446140,61.379360 11.778614,73.143700 11.828645,84.909157 
	C11.851206,90.214699 11.051938,95.525352 11.108991,100.828491 
	C11.140393,103.747406 12.648767,106.653191 12.663078,109.568962 
	C12.698135,116.711388 12.252316,123.856171 12.000001,131.000000 
	C10.933331,131.000000 9.866661,131.000000 8.399996,131.000000 
z"/>
<path fill="#EE5930" opacity="1.000000" stroke="none" 
	d="
M78.978096,27.039125 
	C76.759689,18.724735 76.570946,10.331303 77.999054,1.437470 
	C83.022095,1.000000 88.044182,1.000000 93.533241,1.468651 
	C93.690376,10.820715 93.245438,19.702961 93.168831,28.588388 
	C93.150436,30.721912 94.355499,32.865982 94.997894,35.005203 
	C95.279831,36.754734 95.561760,38.504265 95.611847,40.491165 
	C94.211929,38.680691 93.043854,36.632854 92.047371,34.885849 
	C90.667152,35.267056 89.309364,35.642067 87.660355,35.844177 
	C85.596809,34.736565 83.824471,33.801853 81.962250,32.617241 
	C81.569557,31.946516 81.266754,31.525688 80.972824,30.760162 
	C80.989563,29.955765 80.997437,29.496067 80.788208,28.843365 
	C80.040031,28.427160 79.508934,28.203957 78.978134,27.745346 
	C78.978424,27.509939 78.978096,27.039125 78.978096,27.039125 
z"/>
<path fill="#F27824" opacity="1.000000" stroke="none" 
	d="
M26.000000,131.000000 
	C24.933481,131.000000 23.866964,131.000000 22.400204,130.531342 
	C22.333307,87.041801 22.666653,44.020901 23.000000,1.000000 
	C23.750000,1.000000 24.500000,1.000000 25.625008,1.462076 
	C26.000011,44.949436 26.000006,87.974716 26.000000,131.000000 
z"/>
<path fill="#F27526" opacity="1.000000" stroke="none" 
	d="
M26.399996,131.000000 
	C26.000006,87.974716 26.000011,44.949436 26.000008,1.462076 
	C27.066669,1.000000 28.133339,1.000000 29.600004,1.000000 
	C29.999987,44.020893 29.999973,87.041786 29.999981,130.531342 
	C28.933331,131.000000 27.866661,131.000000 26.399996,131.000000 
z"/>
<path fill="#EE5730" opacity="1.000000" stroke="none" 
	d="
M97.000183,100.998779 
	C97.000053,110.686745 96.999924,120.374718 96.999893,130.531342 
	C91.977905,131.000000 86.955818,131.000000 81.383408,130.609894 
	C80.585381,128.602966 80.085869,126.978767 80.133018,125.370598 
	C80.352226,117.894051 80.722778,110.421944 81.466232,102.838333 
	C85.420197,102.024551 89.697563,104.412766 92.605911,100.085724 
	C93.231758,99.655800 93.621101,99.325974 94.249817,99.003342 
	C94.489182,99.010536 94.968033,99.022888 95.076622,99.301804 
	C95.790207,100.053406 96.395195,100.526093 97.000183,100.998779 
z"/>
<path fill="#F17B22" opacity="1.000000" stroke="none" 
	d="
M22.666668,1.000000 
	C22.666653,44.020901 22.333307,87.041801 21.999981,130.531342 
	C21.250000,131.000000 20.500000,131.000000 19.337193,130.580887 
	C18.616537,122.107887 18.308687,114.054008 18.342461,105.856384 
	C22.365654,101.128738 21.989956,91.389084 18.000725,87.531189 
	C18.000690,74.708420 18.000757,62.354290 18.342445,49.856415 
	C22.365656,45.128761 21.989965,35.389076 18.000725,31.535198 
	C18.000690,26.713760 18.000757,22.356960 18.299089,17.873966 
	C19.065006,16.831909 19.532656,15.916050 20.206902,14.645446 
	C20.608999,9.860467 20.804499,5.430233 21.000000,1.000000 
	C21.444445,1.000000 21.888889,1.000000 22.666668,1.000000 
z"/>
<path fill="#EF672C" opacity="1.000000" stroke="none" 
	d="
M57.000000,131.000000 
	C52.310745,131.000000 47.621487,131.000000 42.466087,130.531891 
	C42.333355,121.432243 42.666767,112.800697 43.381889,104.231628 
	C48.153530,104.168457 52.543461,104.042809 56.946693,104.390854 
	C56.973335,113.576355 56.986668,122.288177 57.000000,131.000000 
z"/>
<path fill="#EE622E" opacity="1.000000" stroke="none" 
	d="
M57.460636,131.000000 
	C56.986668,122.288177 56.973335,113.576355 56.961620,104.411049 
	C56.963242,103.957565 56.914246,103.947708 57.339821,103.963608 
	C59.175552,103.984093 60.585701,103.988663 62.305573,103.979538 
	C63.383961,103.707031 64.152626,103.448212 65.368744,103.122360 
	C68.226891,103.081619 70.637589,103.107918 72.874504,103.438850 
	C69.792816,105.332603 68.787476,107.682961 68.922546,111.056709 
	C69.188286,117.694870 69.000290,124.351189 69.000000,131.000000 
	C65.307091,131.000000 61.614182,131.000000 57.460636,131.000000 
z"/>
<path fill="#EE5D2E" opacity="1.000000" stroke="none" 
	d="
M69.460632,131.000000 
	C69.000290,124.351189 69.188286,117.694870 68.922546,111.056709 
	C68.787476,107.682961 69.792816,105.332603 72.837158,103.367691 
	C72.973595,102.991898 72.935852,102.835655 73.388412,102.895416 
	C76.267067,102.840843 78.693146,102.726501 81.181427,102.715759 
	C81.243622,102.819359 81.039177,102.948242 81.039177,102.948242 
	C80.722778,110.421944 80.352226,117.894051 80.133018,125.370598 
	C80.085869,126.978767 80.585381,128.602966 80.916542,130.609894 
	C77.307091,131.000000 73.614182,131.000000 69.460632,131.000000 
z"/>
<path fill="#F38320" opacity="1.000000" stroke="none" 
	d="
M12.333334,131.000000 
	C12.252316,123.856171 12.698135,116.711388 12.663078,109.568962 
	C12.648767,106.653191 11.140393,103.747406 11.108991,100.828491 
	C11.051938,95.525352 11.851206,90.214699 11.828645,84.909157 
	C11.778614,73.143700 11.446140,61.379360 11.215534,49.614830 
	C11.179663,47.784813 10.976111,45.954063 11.015603,44.127232 
	C11.320076,30.042641 11.665354,15.958929 11.998989,1.437473 
	C12.444445,1.000000 12.888889,1.000000 13.666622,1.447459 
	C13.999763,10.130519 14.024652,18.366251 13.981308,26.601625 
	C13.970884,28.582134 13.593668,30.563620 13.624147,32.540970 
	C13.825196,45.583927 14.085207,58.626019 14.363533,71.667587 
	C14.373104,72.116051 14.779293,72.556053 15.000651,73.444168 
	C15.000666,76.258888 15.000648,78.629440 14.796902,81.341583 
	C14.067051,85.460289 13.050082,89.249611 13.143627,93.011314 
	C13.251608,97.353584 14.338852,101.671509 15.000877,106.437500 
	C15.000795,108.916664 15.000712,110.958336 14.793153,113.356689 
	C14.390450,119.475578 14.195225,125.237793 14.000000,131.000000 
	C13.555555,131.000000 13.111111,131.000000 12.333334,131.000000 
z"/>
<path fill="#F17F21" opacity="1.000000" stroke="none" 
	d="
M15.000629,113.000000 
	C15.000712,110.958336 15.000795,108.916664 15.208164,106.080338 
	C15.277177,97.190453 15.138904,89.095230 15.000629,81.000000 
	C15.000648,78.629440 15.000666,76.258888 15.207993,73.087021 
	C15.610186,70.150032 15.970286,68.014671 15.974422,65.878632 
	C16.016285,44.252483 15.999983,22.626226 16.000000,1.000000 
	C16.444445,1.000000 16.888889,1.000000 17.666710,1.464651 
	C18.000288,6.286201 18.000488,10.643101 18.000546,15.375020 
	C18.000544,16.500080 18.000685,17.250122 18.000824,18.000162 
	C18.000757,22.356960 18.000690,26.713760 18.000519,32.003151 
	C18.000551,38.623882 18.000687,44.312023 18.000824,50.000164 
	C18.000757,62.354290 18.000690,74.708420 18.000519,87.999146 
	C18.000557,94.623871 18.000698,100.311996 18.000839,106.000122 
	C18.308687,114.054008 18.616537,122.107887 18.962193,130.580887 
	C18.250000,131.000000 17.500000,131.000000 16.375002,130.532257 
	C15.666879,124.376343 15.333754,118.688171 15.000629,113.000000 
z"/>
<path fill="#EF6E29" opacity="1.000000" stroke="none" 
	d="
M43.000179,104.169159 
	C42.666767,112.800697 42.333355,121.432243 41.999969,130.531891 
	C39.629444,131.000000 37.258884,131.000000 34.444160,131.000000 
	C34.003208,121.967140 34.006420,112.934288 34.234795,103.430351 
	C34.459965,102.959274 34.904644,102.966904 35.183968,102.936371 
	C36.160515,102.658539 36.857731,102.411247 37.914623,102.256577 
	C39.849590,102.955849 41.424885,103.562508 43.000179,104.169159 
z"/>
<path fill="#F28121" opacity="1.000000" stroke="none" 
	d="
M15.666666,1.000000 
	C15.999983,22.626226 16.016285,44.252483 15.974422,65.878632 
	C15.970286,68.014671 15.610186,70.150032 15.207962,72.642853 
	C14.779293,72.556053 14.373104,72.116051 14.363533,71.667587 
	C14.085207,58.626019 13.825196,45.583927 13.624147,32.540970 
	C13.593668,30.563620 13.970884,28.582134 13.981308,26.601625 
	C14.024652,18.366251 13.999763,10.130519 13.999955,1.447459 
	C14.444445,1.000000 14.888889,1.000000 15.666666,1.000000 
z"/>
<path fill="#EB552E" opacity="1.000000" stroke="none" 
	d="
M95.249466,34.712677 
	C94.355499,32.865982 93.150436,30.721912 93.168831,28.588388 
	C93.245438,19.702961 93.690376,10.820715 94.000107,1.468651 
	C94.750000,1.000000 95.500000,1.000000 96.625000,1.000000 
	C96.999413,10.114137 97.087204,19.229797 96.930138,28.341238 
	C96.895081,30.375151 96.000099,32.394241 95.249466,34.712677 
z"/>
<path fill="#F17C21" opacity="1.000000" stroke="none" 
	d="
M18.000687,15.000000 
	C18.000488,10.643101 18.000288,6.286201 18.000044,1.464651 
	C18.750000,1.000000 19.500000,1.000000 20.625000,1.000000 
	C20.804499,5.430233 20.608999,9.860467 19.873623,14.645391 
	C18.889395,15.000055 18.445040,15.000028 18.000687,15.000000 
z"/>
<path fill="#F28121" opacity="1.000000" stroke="none" 
	d="
M14.793153,113.356689 
	C15.333754,118.688171 15.666879,124.376343 16.000002,130.532257 
	C15.555555,131.000000 15.111111,131.000000 14.333332,131.000000 
	C14.195225,125.237793 14.390450,119.475578 14.793153,113.356689 
z"/>
<path fill="#FFFFFF" opacity="1.000000" stroke="none" 
	d="
M80.963951,31.104862 
	C81.266754,31.525688 81.569557,31.946516 82.027733,32.896038 
	C82.183098,35.029842 82.183098,36.634956 82.183098,38.977707 
	C84.133797,38.736183 86.320801,38.465401 88.631531,38.238564 
	C88.755257,38.282505 88.823624,38.536045 88.735123,38.755764 
	C89.135101,39.299633 89.623581,39.623783 90.417236,40.116249 
	C90.759109,41.194817 90.795815,42.105068 90.631088,43.269943 
	C89.960999,46.599636 89.399605,49.664230 89.050606,52.752827 
	C88.723114,55.651199 90.075554,57.168297 93.097702,56.964886 
	C93.405830,59.371071 93.713959,61.777256 94.021301,65.046829 
	C94.082237,68.274292 94.143944,70.638367 94.148491,73.404037 
	C94.200356,74.872238 94.309372,75.938843 94.418396,77.005440 
	C94.397598,77.969353 94.376793,78.933266 94.257187,80.572182 
	C94.325340,81.850761 94.492294,82.454330 94.659248,83.057907 
	C94.705559,83.222649 94.751877,83.387398 94.823311,84.194046 
	C94.911194,86.226479 94.973976,87.616997 94.979645,88.913048 
	C94.922523,88.818573 94.721710,88.910370 94.534103,89.182358 
	C94.151085,90.315231 93.955673,91.176109 93.541985,92.273636 
	C92.216080,94.005310 91.108444,95.500343 89.673859,97.196640 
	C83.897438,97.932655 78.447968,98.467392 72.531784,99.001511 
	C67.043388,99.000496 62.021694,99.000092 56.600670,98.989182 
	C54.236347,98.782799 52.274578,98.539398 50.305355,98.405937 
	C48.691345,98.296539 46.993958,98.613159 45.463329,98.226761 
	C40.655807,97.013100 40.109844,93.098175 40.011887,88.667084 
	C40.005341,87.893181 40.002857,87.450905 39.858795,86.827766 
	C39.516796,86.414833 39.295658,86.204552 39.049690,85.669037 
	C39.016716,84.860329 38.987846,84.398659 38.916435,83.699089 
	C38.873894,83.461189 38.764118,82.990471 38.941986,82.762833 
	C39.163586,82.157303 39.207317,81.779396 39.444077,81.347488 
	C39.637100,81.293472 40.019108,81.171928 40.106323,81.310974 
	C40.310463,81.035912 40.427391,80.621819 40.535198,79.884308 
	C40.721958,78.721992 40.917835,77.883087 41.113705,77.044174 
	C41.416344,76.258339 41.718987,75.472511 42.392685,74.473747 
	C44.047020,75.101959 45.330296,75.943108 46.991669,77.032082 
	C49.299931,71.614929 46.833652,64.939217 52.882278,61.724289 
	C53.429760,62.594868 53.898788,63.340691 54.367817,64.086510 
	C54.974247,63.960491 55.580673,63.834469 56.187103,63.708450 
	C55.750702,58.381191 55.314297,53.053936 54.972267,47.401062 
	C55.308254,46.450043 55.549870,45.824642 55.791481,45.199242 
	C56.068172,45.151150 56.298965,45.021420 56.770851,45.015671 
	C57.793591,45.381256 58.529350,45.541218 59.265110,45.701180 
	C58.924690,44.493862 58.584270,43.286541 58.243851,42.079224 
	C58.178120,41.749466 58.251465,41.454258 58.872906,40.927429 
	C59.507175,40.409092 59.732426,40.156925 59.957676,39.904762 
	C61.685108,35.700439 63.455559,31.535681 69.287209,30.298483 
	C70.988045,30.026510 72.018402,29.945286 73.024048,29.944042 
	C72.999336,30.024025 72.948784,30.183668 73.063797,30.271790 
	C73.178818,30.359911 73.600464,30.419176 73.600464,30.419176 
	C73.600464,30.419176 73.994240,30.256351 74.232971,30.212833 
	C74.471695,30.169313 74.957764,30.190516 74.957764,30.190516 
	C74.957764,30.190516 75.426064,30.058479 75.612541,30.290283 
	C76.177330,30.598705 76.555649,30.675327 77.195160,30.852585 
	C77.642952,30.955084 77.829552,30.956949 78.219849,31.148277 
	C79.270340,31.260115 80.117149,31.182487 80.963951,31.104862 
z"/>
<path fill="#EB552E" opacity="1.000000" stroke="none" 
	d="
M90.832520,43.015324 
	C90.795815,42.105068 90.759109,41.194817 90.338272,39.882042 
	C89.577301,39.165028 89.200462,38.850536 88.823624,38.536041 
	C88.823624,38.536045 88.755257,38.282505 88.467072,38.001587 
	C88.103119,37.152802 88.027344,36.584942 87.951576,36.017078 
	C89.309364,35.642067 90.667152,35.267056 92.047371,34.885849 
	C93.043854,36.632854 94.211929,38.680691 95.689857,40.862396 
	C95.296326,44.284695 94.592949,47.573128 93.450302,50.549583 
	C92.284866,47.830173 91.558693,45.422749 90.832520,43.015324 
z"/>
<path fill="#F8FDF9" opacity="1.000000" stroke="none" 
	d="
M90.631088,43.269943 
	C91.558693,45.422749 92.284866,47.830173 93.092453,50.617836 
	C93.119308,52.703663 93.064743,54.409252 93.053940,56.539864 
	C90.075554,57.168297 88.723114,55.651199 89.050606,52.752827 
	C89.399605,49.664230 89.960999,46.599636 90.631088,43.269943 
z"/>
<path fill="#F9FEFD" opacity="1.000000" stroke="none" 
	d="
M90.000809,96.995369 
	C91.108444,95.500343 92.216080,94.005310 93.751884,92.331276 
	C94.180061,92.152275 94.614059,92.144791 94.667252,92.370415 
	C94.720436,92.596039 94.918221,93.015350 94.918221,93.015350 
	C94.736923,93.735435 94.555626,94.455513 94.351883,95.690094 
	C94.329437,96.204582 94.438194,96.526901 94.423843,96.602173 
	C94.409485,96.677444 94.558716,96.712364 94.365784,96.947845 
	C94.118713,97.787598 94.064583,98.391876 94.010452,98.996140 
	C93.621101,99.325974 93.231758,99.655800 92.367088,99.854362 
	C91.261444,98.813858 90.631126,97.904610 90.000809,96.995369 
z"/>
<path fill="#F74C26" opacity="1.000000" stroke="none" 
	d="
M94.656052,77.032166 
	C94.309372,75.938843 94.200356,74.872238 94.316605,73.394623 
	C94.541878,72.983612 94.878677,72.982437 94.878677,72.982437 
	C94.883690,74.341255 94.888702,75.700073 94.656052,77.032166 
z"/>
<path fill="#EF460D" opacity="1.000000" stroke="none" 
	d="
M94.914818,72.564697 
	C94.878677,72.982437 94.541878,72.983612 94.373764,72.993027 
	C94.143944,70.638367 94.082237,68.274292 94.090759,65.472511 
	C94.424316,67.405518 94.687637,69.776237 94.914818,72.564697 
z"/>
<path fill="#F25B39" opacity="1.000000" stroke="none" 
	d="
M96.933655,100.661316 
	C96.395195,100.526093 95.790207,100.053406 95.035355,98.912613 
	C94.776573,97.733795 94.667648,97.223076 94.558716,96.712364 
	C94.558716,96.712364 94.409485,96.677444 94.812737,96.721733 
	C95.475906,96.843483 95.735825,96.920952 95.995735,96.998413 
	C96.286201,98.106895 96.576668,99.215378 96.933655,100.661316 
z"/>
<path fill="#F34A42" opacity="1.000000" stroke="none" 
	d="
M95.036758,89.007523 
	C94.973976,87.616997 94.911194,86.226479 94.932991,84.426132 
	C95.340660,85.421173 95.663757,86.826035 95.749275,88.613815 
	C95.511696,88.996742 95.036758,89.007523 95.036758,89.007523 
z"/>
<path fill="#EC4B35" opacity="1.000000" stroke="none" 
	d="
M94.979645,88.913048 
	C95.036758,89.007523 95.511696,88.996742 95.748924,88.988503 
	C95.768082,90.134003 95.550003,91.287743 95.125076,92.728416 
	C94.918221,93.015350 94.720436,92.596039 94.804382,91.979691 
	C94.832787,90.545677 94.777245,89.728027 94.721710,88.910370 
	C94.721710,88.910370 94.922523,88.818573 94.979645,88.913048 
z"/>
<path fill="#F9D0BF" opacity="1.000000" stroke="none" 
	d="
M94.790855,82.793625 
	C94.492294,82.454330 94.325340,81.850761 94.234085,80.935013 
	C94.309792,80.622841 94.707779,80.765160 94.867432,81.130821 
	C95.027084,81.496483 95.130081,81.976585 95.130081,81.976585 
	C95.060883,82.160835 94.991676,82.345085 94.790855,82.793625 
z"/>
<path fill="#EE4733" opacity="1.000000" stroke="none" 
	d="
M95.190239,81.857056 
	C95.130081,81.976585 95.027084,81.496483 95.040863,81.251572 
	C95.251732,81.220451 95.316978,81.464066 95.190239,81.857056 
z"/>
<path fill="#EC4B35" opacity="1.000000" stroke="none" 
	d="
M95.766357,96.793381 
	C95.735825,96.920952 95.475906,96.843483 94.827087,96.646461 
	C94.438194,96.526901 94.329437,96.204582 94.418442,96.059441 
	C94.850624,96.138985 95.193794,96.363663 95.766357,96.793381 
z"/>
<path fill="#FAFBF8" opacity="1.000000" stroke="none" 
	d="
M54.877895,47.726681 
	C55.314297,53.053936 55.750702,58.381191 56.187103,63.708450 
	C55.580673,63.834469 54.974247,63.960491 54.367817,64.086510 
	C53.898788,63.340691 53.429760,62.594868 52.882278,61.724289 
	C46.833652,64.939217 49.299931,71.614929 46.991669,77.032082 
	C45.330296,75.943108 44.047020,75.101959 42.459831,74.134857 
	C42.716454,72.877747 43.276989,71.746582 43.984352,70.015152 
	C44.795971,68.422935 45.460766,67.430992 46.333260,66.232513 
	C46.601204,65.648926 46.661449,65.271873 46.811913,64.684555 
	C46.902134,64.474274 46.810341,64.025948 46.894760,63.806503 
	C46.979176,63.587063 47.061798,63.124134 47.061798,63.124134 
	C47.718380,61.380547 48.374958,59.636955 49.345520,57.396778 
	C50.114605,55.955921 50.569702,55.011650 51.024803,54.067375 
	C51.681366,52.947144 52.337929,51.826908 53.290932,50.208527 
	C54.017544,49.049152 54.447720,48.387917 54.877895,47.726681 
z"/>
<path fill="#F8FDF8" opacity="1.000000" stroke="none" 
	d="
M57.991718,42.252174 
	C58.584270,43.286541 58.924690,44.493862 59.265110,45.701180 
	C58.529350,45.541218 57.793591,45.381256 56.959244,44.943756 
	C57.153629,43.919189 57.446609,43.172157 57.991718,42.252174 
z"/>
<path fill="#F35F0F" opacity="1.000000" stroke="none" 
	d="
M46.125565,66.439049 
	C45.460766,67.430992 44.795971,68.422935 43.996994,69.690002 
	C43.905403,68.224167 43.947998,66.483200 44.024963,64.393410 
	C44.059334,64.044586 44.521523,64.037971 44.899525,64.234024 
	C45.485168,64.688026 45.710125,64.929871 45.994358,65.476654 
	C46.066071,66.011475 46.095818,66.225266 46.125565,66.439049 
z"/>
<path fill="#DE5D26" opacity="1.000000" stroke="none" 
	d="
M54.972267,47.401062 
	C54.447720,48.387917 54.017544,49.049152 53.322983,49.871651 
	C52.768986,49.559601 52.479370,49.086281 52.289677,48.115601 
	C52.601410,47.081970 52.813221,46.545708 53.025032,46.009445 
	C53.709934,45.783024 54.394836,45.556602 55.435608,45.264709 
	C55.549870,45.824642 55.308254,46.450043 54.972267,47.401062 
z"/>
<path fill="#F76226" opacity="1.000000" stroke="none" 
	d="
M51.002190,53.833614 
	C50.569702,55.011650 50.114605,55.955921 49.361855,57.023144 
	C49.386391,55.790840 49.708580,54.435589 50.030773,53.080334 
	C50.347042,53.253506 50.663307,53.426678 51.002190,53.833614 
z"/>
<path fill="#F76226" opacity="1.000000" stroke="none" 
	d="
M51.998474,46.001526 
	C51.631310,45.780869 51.256699,45.570877 50.906311,45.326199 
	C50.862007,45.295258 50.944820,45.082275 50.968739,44.953632 
	C51.272186,45.166229 51.575630,45.378826 51.939537,45.795712 
	C52.000000,46.000000 51.998474,46.001526 51.998474,46.001526 
z"/>
<path fill="#FD6C22" opacity="1.000000" stroke="none" 
	d="
M45.952393,65.155609 
	C45.710125,64.929871 45.485168,64.688026 45.130615,64.230782 
	C45.190483,63.498444 45.397259,62.965412 45.844185,62.480957 
	C46.326340,63.028336 46.568340,63.527142 46.810341,64.025948 
	C46.810341,64.025948 46.902134,64.474274 46.620308,64.752853 
	C46.338478,65.031425 45.952393,65.155609 45.952393,65.155609 
z"/>
<path fill="#E25D19" opacity="1.000000" stroke="none" 
	d="
M46.894760,63.806503 
	C46.568340,63.527142 46.326340,63.028336 46.024384,62.256950 
	C46.301273,62.240395 46.638119,62.496418 47.018379,62.938286 
	C47.061798,63.124134 46.979176,63.587063 46.894760,63.806503 
z"/>
<path fill="#F76226" opacity="1.000000" stroke="none" 
	d="
M52.769161,46.006409 
	C52.813221,46.545708 52.601410,47.081970 52.209755,47.847527 
	C52.020870,47.615337 52.011826,47.153854 52.000629,46.346947 
	C51.998474,46.001526 52.000000,46.000000 52.000763,45.999237 
	C52.172115,46.000107 52.342701,46.001740 52.769161,46.006409 
z"/>
<path fill="#F8FDF8" opacity="1.000000" stroke="none" 
	d="
M59.728992,39.951744 
	C59.732426,40.156925 59.507175,40.409092 59.075768,40.810036 
	C58.869606,40.958817 58.875130,40.473145 58.954384,40.243614 
	C59.033638,40.014084 59.500309,39.998722 59.728992,39.951744 
z"/>
<path fill="#DA664B" opacity="1.000000" stroke="none" 
	d="
M73.048767,29.864059 
	C72.018402,29.945286 70.988045,30.026510 69.570152,30.084507 
	C70.226280,29.709259 71.269928,29.357239 72.653969,29.004391 
	C72.994354,29.003565 72.989792,29.015326 73.002441,29.227402 
	C73.015099,29.439480 73.048767,29.864059 73.048767,29.864059 
z"/>
<path fill="#F2531D" opacity="1.000000" stroke="none" 
	d="
M72.999405,29.000914 
	C73.494385,28.703926 73.984322,28.409590 75.120697,28.052971 
	C76.501129,27.996777 77.235107,28.002865 77.973442,28.256393 
	C77.977798,28.503834 77.981171,28.998976 77.988144,29.001106 
	C77.995110,29.003239 77.999680,28.994099 77.582779,28.994930 
	C75.773842,29.002281 74.381821,29.008802 72.989792,29.015326 
	C72.989792,29.015326 72.994354,29.003565 72.999405,29.000914 
z"/>
<path fill="#FE5835" opacity="1.000000" stroke="none" 
	d="
M77.969086,28.008955 
	C77.235107,28.002865 76.501129,27.996777 75.401337,27.983168 
	C76.116966,27.660191 77.198418,27.344732 78.628983,27.034201 
	C78.978096,27.039125 78.978424,27.509939 78.726105,27.753536 
	C78.305550,28.001074 78.137321,28.005014 77.969086,28.008955 
z"/>
<path fill="#FBFCFC" opacity="1.000000" stroke="none" 
	d="
M40.015945,88.998726 
	C40.109844,93.098175 40.655807,97.013100 45.463329,98.226761 
	C46.993958,98.613159 48.691345,98.296539 50.305355,98.405937 
	C52.274578,98.539398 54.236347,98.782799 56.601807,99.401596 
	C57.017048,100.924103 57.031818,102.023666 57.017456,103.329987 
	C56.988319,103.536743 56.914246,103.947708 56.914246,103.947708 
	C56.914246,103.947708 56.963242,103.957565 56.948315,103.937363 
	C52.543461,104.042809 48.153530,104.168457 43.381889,104.231628 
	C41.424885,103.562508 39.849590,102.955849 37.766945,101.994308 
	C36.575394,100.909218 35.891190,100.179016 35.219879,99.138321 
	C35.097301,98.221275 34.961830,97.614731 34.826363,97.008186 
	C34.909790,96.433594 34.993221,95.858994 35.620384,95.083435 
	C36.440804,94.921745 36.717484,94.961006 37.186882,94.736649 
	C37.592888,93.637001 37.806171,92.800980 38.210209,91.736191 
	C38.939293,90.671188 39.477619,89.834953 40.015945,88.998726 
z"/>
<path fill="#FA6817" opacity="1.000000" stroke="none" 
	d="
M35.987793,85.000992 
	C35.998566,84.266289 36.009342,83.531578 36.033363,82.414337 
	C36.046608,82.031799 36.070271,82.012680 36.333580,82.081909 
	C37.072502,82.415100 37.548115,82.679054 38.027458,83.278175 
	C38.060230,83.833939 38.089268,84.054535 38.115685,84.620453 
	C37.738461,86.265404 37.363861,87.565041 36.818756,88.948967 
	C36.648243,89.033264 36.294861,89.174103 36.294861,89.174103 
	C36.294861,89.174103 36.119846,88.923584 36.043438,88.537788 
	C35.978203,87.780281 35.989376,87.408577 36.001400,86.695595 
	C35.997433,85.903214 35.992611,85.452103 35.987793,85.000992 
z"/>
<path fill="#D76E2B" opacity="1.000000" stroke="none" 
	d="
M34.659309,97.288177 
	C34.961830,97.614731 35.097301,98.221275 35.175343,99.577316 
	C35.046822,101.206841 34.975735,102.086868 34.904644,102.966904 
	C34.904644,102.966904 34.459965,102.959274 34.237854,102.959137 
	C34.174583,101.162056 34.333420,99.365105 34.659309,97.288177 
z"/>
<path fill="#EFFCFF" opacity="1.000000" stroke="none" 
	d="
M36.361565,89.441132 
	C36.294861,89.174103 36.648243,89.033264 36.998932,89.230202 
	C37.572899,90.273079 37.796177,91.119019 38.019451,91.964958 
	C37.806171,92.800980 37.592888,93.637001 37.187374,94.387863 
	C36.867550,92.944107 36.739956,91.585518 36.612362,90.226929 
	C36.550995,90.054008 36.489632,89.881081 36.361565,89.441132 
z"/>
<path fill="#E46C21" opacity="1.000000" stroke="none" 
	d="
M35.018913,77.394089 
	C35.541409,77.224022 36.059616,77.432953 36.663860,78.112991 
	C36.511642,79.391502 36.273388,80.198914 36.042461,81.257957 
	C36.056614,81.677292 36.063442,81.844986 36.070271,82.012680 
	C36.070271,82.012680 36.046608,82.031799 36.039612,82.047012 
	C35.693283,80.632507 35.353958,79.202797 35.018913,77.394089 
z"/>
<path fill="#FEFDFC" opacity="1.000000" stroke="none" 
	d="
M36.425674,90.573654 
	C36.739956,91.585518 36.867550,92.944107 36.994652,94.651482 
	C36.717484,94.961006 36.440804,94.921745 35.749268,94.822372 
	C35.635941,93.481628 35.937466,92.201004 36.425674,90.573654 
z"/>
<path fill="#FD681D" opacity="1.000000" stroke="none" 
	d="
M36.000546,87.036865 
	C35.989376,87.408577 35.978203,87.780281 35.940758,88.424637 
	C35.336655,88.306664 34.758820,87.916061 34.337555,87.253082 
	C34.494125,86.980698 34.987473,86.978752 35.240929,86.990013 
	C35.663101,87.013130 35.831821,87.024994 36.000546,87.036865 
z"/>
<path fill="#EE7739" opacity="1.000000" stroke="none" 
	d="
M34.987473,86.978752 
	C34.987473,86.978752 34.494125,86.980698 34.247463,86.981812 
	C34.202713,86.333679 34.404629,85.684433 34.802689,85.347000 
	C34.995049,86.098785 34.991261,86.538765 34.987473,86.978752 
z"/>
<path fill="#ED6D2A" opacity="1.000000" stroke="none" 
	d="
M35.240929,86.990013 
	C34.991261,86.538765 34.995049,86.098785 35.002895,85.327713 
	C35.006954,84.996620 35.497910,84.998672 35.742851,84.999832 
	C35.992611,85.452103 35.997433,85.903214 36.001400,86.695595 
	C35.831821,87.024994 35.663101,87.013130 35.240929,86.990013 
z"/>
<path fill="#E1652B" opacity="1.000000" stroke="none" 
	d="
M40.019108,81.171928 
	C40.019108,81.171928 39.637100,81.293472 39.381760,80.925415 
	C39.084644,79.701851 39.042870,78.846352 39.001091,77.990852 
	C39.512794,77.713150 40.024498,77.435440 40.824955,77.100952 
	C40.917835,77.883087 40.721958,78.721992 40.328484,80.083435 
	C40.093632,80.794609 40.056370,80.983269 40.019108,81.171928 
z"/>
<path fill="#EC5E23" opacity="1.000000" stroke="none" 
	d="
M38.754974,77.995018 
	C39.042870,78.846352 39.084644,79.701851 39.188736,80.979424 
	C39.207317,81.779396 39.163586,82.157303 38.757034,82.749405 
	C38.394218,82.963600 38.023724,82.943008 38.023724,82.943008 
	C37.548115,82.679054 37.072502,82.415100 36.333580,82.081909 
	C36.063442,81.844986 36.056614,81.677292 36.338943,81.132629 
	C37.090927,79.838959 37.553761,78.922256 38.016594,78.005562 
	C38.016594,78.005562 38.508858,77.999184 38.754974,77.995018 
z"/>
<path fill="#FA6B2A" opacity="1.000000" stroke="none" 
	d="
M37.764923,78.004440 
	C37.553761,78.922256 37.090927,79.838959 36.331615,80.880989 
	C36.273388,80.198914 36.511642,79.391502 36.879913,78.294563 
	C37.177704,78.004463 37.345482,78.003891 37.764923,78.004440 
z"/>
<path fill="#FBFBF8" opacity="1.000000" stroke="none" 
	d="
M87.660355,35.844177 
	C88.027344,36.584942 88.103119,37.152802 88.343346,37.957642 
	C86.320801,38.465401 84.133797,38.736183 82.183098,38.977707 
	C82.183098,36.634956 82.183098,35.029842 82.117615,33.145935 
	C83.824471,33.801853 85.596809,34.736565 87.660355,35.844177 
z"/>
<path fill="#EB5427" opacity="1.000000" stroke="none" 
	d="
M80.972824,30.760162 
	C80.117149,31.182487 79.270340,31.260115 78.213577,30.820976 
	C78.002304,29.867508 78.000992,29.430803 77.999680,28.994099 
	C77.999680,28.994099 77.995110,29.003239 78.366425,29.002890 
	C79.493599,29.013817 80.249451,29.025093 81.005302,29.036369 
	C80.997437,29.496067 80.989563,29.955765 80.972824,30.760162 
z"/>
<path fill="#EF5E3D" opacity="1.000000" stroke="none" 
	d="
M80.788208,28.843367 
	C80.249451,29.025093 79.493599,29.013817 78.359459,29.000759 
	C77.981171,28.998976 77.977798,28.503834 77.973442,28.256393 
	C78.137321,28.005014 78.305550,28.001074 78.725815,27.988945 
	C79.508934,28.203957 80.040031,28.427160 80.788208,28.843367 
z"/>
<path fill="#FBFCFC" opacity="1.000000" stroke="none" 
	d="
M89.673859,97.196640 
	C90.631126,97.904610 91.261444,98.813858 92.130585,99.954453 
	C89.697563,104.412766 85.420197,102.024551 81.466232,102.838333 
	C81.039177,102.948242 81.243622,102.819359 81.017120,102.543579 
	C80.507820,102.123283 80.219322,101.991241 79.608032,101.696907 
	C77.193474,100.682144 75.095978,99.842140 72.998489,99.002129 
	C78.447968,98.467392 83.897438,97.932655 89.673859,97.196640 
z"/>
<path fill="#EE5333" opacity="1.000000" stroke="none" 
	d="
M94.365784,96.947845 
	C94.667648,97.223076 94.776573,97.733795 94.926765,98.633698 
	C94.968033,99.022888 94.489182,99.010536 94.249817,99.003342 
	C94.064583,98.391876 94.118713,97.787598 94.365784,96.947845 
z"/>
<path fill="#F17C21" opacity="1.000000" stroke="none" 
	d="
M18.342445,49.856415 
	C18.000687,44.312023 18.000551,38.623882 18.000618,32.467789 
	C21.989965,35.389076 22.365656,45.128761 18.342445,49.856415 
z"/>
<path fill="#F17C21" opacity="1.000000" stroke="none" 
	d="
M18.342461,105.856384 
	C18.000698,100.311996 18.000557,94.623871 18.000618,88.467789 
	C21.989956,91.389084 22.365654,101.128738 18.342461,105.856384 
z"/>
<path fill="#F17C21" opacity="1.000000" stroke="none" 
	d="
M18.000546,15.375020 
	C18.445040,15.000028 18.889395,15.000055 19.667027,15.000137 
	C19.532656,15.916050 19.065006,16.831909 18.299089,17.873966 
	C18.000685,17.250122 18.000544,16.500080 18.000546,15.375020 
z"/>
<path fill="#F6BFC2" opacity="1.000000" stroke="none" 
	d="
M73.010941,103.063065 
	C70.637589,103.107918 68.226891,103.081619 65.318985,102.991364 
	C64.821777,102.927414 65.046623,102.760239 65.382820,102.559219 
	C68.158020,102.292809 70.597023,102.227417 73.011536,102.330513 
	C72.987038,102.499001 72.935852,102.835655 72.935852,102.835655 
	C72.935852,102.835655 72.973595,102.991898 73.010941,103.063065 
z"/>
<path fill="#F16A25" opacity="1.000000" stroke="none" 
	d="
M57.339821,103.963608 
	C56.914246,103.947708 56.988319,103.536743 57.429207,103.283737 
	C59.247906,103.048027 60.625717,103.065331 62.000980,103.310287 
	C61.998436,103.537926 61.995853,103.993233 61.995853,103.993233 
	C60.585701,103.988663 59.175552,103.984093 57.339821,103.963608 
z"/>
<path fill="#EE5D17" opacity="1.000000" stroke="none" 
	d="
M62.305573,103.979538 
	C61.995853,103.993233 61.998436,103.537926 62.376160,103.228470 
	C63.518131,102.866081 64.282379,102.813164 65.046623,102.760239 
	C65.046623,102.760239 64.821777,102.927414 64.871536,103.058411 
	C64.152626,103.448212 63.383961,103.707031 62.305573,103.979538 
z"/>
<path fill="#F5B3B3" opacity="1.000000" stroke="none" 
	d="
M73.388412,102.895416 
	C72.935852,102.835655 72.987038,102.499001 73.441620,102.286667 
	C75.905830,102.006767 77.915474,101.939209 79.925110,101.871658 
	C80.219322,101.991241 80.507820,102.123283 80.954926,102.439980 
	C78.693146,102.726501 76.267067,102.840843 73.388412,102.895416 
z"/>
<path fill="#F28121" opacity="1.000000" stroke="none" 
	d="
M14.796902,81.341583 
	C15.138904,89.095230 15.277177,97.190453 15.208163,105.642838 
	C14.338852,101.671509 13.251608,97.353584 13.143627,93.011314 
	C13.050082,89.249611 14.067051,85.460289 14.796902,81.341583 
z"/>
<path fill="#F9612A" opacity="1.000000" stroke="none" 
	d="
M35.183968,102.936371 
	C34.975735,102.086868 35.046822,101.206841 35.162449,99.887810 
	C35.891190,100.179016 36.575394,100.909218 37.407272,101.901688 
	C36.857731,102.411247 36.160515,102.658539 35.183968,102.936371 
z"/>
<path fill="#F9FEFD" opacity="1.000000" stroke="none" 
	d="
M79.608032,101.696899 
	C77.915474,101.939209 75.905830,102.006767 73.466110,102.118179 
	C70.597023,102.227417 68.158020,102.292809 65.382820,102.559219 
	C64.282379,102.813164 63.518131,102.866081 62.378704,103.000824 
	C60.625717,103.065331 59.247906,103.048027 57.458344,103.076981 
	C57.031818,102.023666 57.017048,100.924103 57.001137,99.412109 
	C62.021694,99.000092 67.043388,99.000496 72.531784,99.001511 
	C75.095978,99.842140 77.193474,100.682144 79.608032,101.696899 
z"/>
<path fill="#FEFBED" opacity="1.000000" stroke="none" 
	d="
M38.210209,91.736191 
	C37.796177,91.119019 37.572899,90.273079 37.169445,89.145905 
	C37.363861,87.565041 37.738461,86.265404 38.324997,84.533600 
	C38.536930,84.101418 38.958977,83.936989 38.958977,83.936989 
	C38.987846,84.398659 39.016716,84.860329 39.186222,85.852982 
	C39.527397,86.618034 39.751904,86.826256 40.000378,87.008636 
	C40.002857,87.450905 40.005341,87.893181 40.011887,88.667084 
	C39.477619,89.834953 38.939293,90.671188 38.210209,91.736191 
z"/>
<path fill="#E66439" opacity="1.000000" stroke="none" 
	d="
M77.582779,28.994930 
	C78.000992,29.430803 78.002304,29.867508 78.009888,30.631514 
	C77.829552,30.956949 77.642952,30.955084 76.956001,30.715113 
	C76.112457,30.337496 75.769257,30.197989 75.426064,30.058479 
	C75.426064,30.058479 74.957764,30.190516 74.957764,30.190516 
	C74.957764,30.190516 74.471695,30.169313 73.976349,30.126350 
	C73.303604,30.116814 73.126190,30.150240 72.948784,30.183668 
	C72.948784,30.183668 72.999336,30.024025 73.024048,29.944042 
	C73.048767,29.864059 73.015099,29.439480 73.002441,29.227402 
	C74.381821,29.008802 75.773842,29.002281 77.582779,28.994930 
z"/>
<path fill="#F9D0BF" opacity="1.000000" stroke="none" 
	d="
M94.534103,89.182358 
	C94.777245,89.728027 94.832787,90.545677 94.751190,91.754059 
	C94.614059,92.144791 94.180061,92.152275 93.970161,92.094635 
	C93.955673,91.176109 94.151085,90.315231 94.534103,89.182358 
z"/>
<path fill="#FBFBF8" opacity="1.000000" stroke="none" 
	d="
M88.735123,38.755760 
	C89.200462,38.850536 89.577301,39.165028 90.033096,39.713726 
	C89.623581,39.623783 89.135101,39.299633 88.735123,38.755760 
z"/>
<path fill="#F4FEFF" opacity="1.000000" stroke="none" 
	d="
M40.106323,81.310974 
	C40.056370,80.983269 40.093632,80.794609 40.337601,80.406837 
	C40.427391,80.621819 40.310463,81.035912 40.106323,81.310974 
z"/>
<path fill="#F07227" opacity="1.000000" stroke="none" 
	d="
M38.916435,83.699089 
	C38.958977,83.936989 38.536930,84.101418 38.327618,84.188271 
	C38.089268,84.054535 38.060230,83.833939 38.027458,83.278175 
	C38.023724,82.943008 38.394218,82.963600 38.579170,82.977036 
	C38.764118,82.990471 38.873894,83.461189 38.916435,83.699089 
z"/>
<path fill="#FFF6E8" opacity="1.000000" stroke="none" 
	d="
M73.063797,30.271790 
	C73.126190,30.150240 73.303604,30.116814 73.737625,30.169870 
	C73.994240,30.256351 73.600464,30.419176 73.600464,30.419176 
	C73.600464,30.419176 73.178818,30.359911 73.063797,30.271790 
z"/>
<path fill="#EF5E3D" opacity="1.000000" stroke="none" 
	d="
M75.612541,30.290283 
	C75.769257,30.197989 76.112457,30.337496 76.694809,30.614475 
	C76.555649,30.675327 76.177330,30.598705 75.612541,30.290283 
z"/>
<path fill="#F4FEFF" opacity="1.000000" stroke="none" 
	d="
M39.858795,86.827766 
	C39.751904,86.826256 39.527397,86.618034 39.190331,86.200020 
	C39.295658,86.204552 39.516796,86.414833 39.858795,86.827766 
z"/>
<path fill="#E25D19" opacity="1.000000" stroke="none" 
	d="
M45.994358,65.476654 
	C45.952393,65.155609 46.338478,65.031425 46.530087,64.963127 
	C46.661449,65.271873 46.601204,65.648926 46.333260,66.232513 
	C46.095818,66.225266 46.066071,66.011475 45.994358,65.476654 
z"/>
</svg>